# xmcd
#
# Track frame offsets:
#	150
#	73349
#	148480
#
# Disc length: 3720 seconds
#
# Revision: 1
# Processed by: cddbd v1.5.2PL0 Copyright (c) Steve Scherf et al.
# Submitted via: audiograbber 1.83.01
#
DISCID=330e8603
DTITLE=Kurt Tepperwein - Selbst-Hilfe bei Allergien
DYEAR=2008
DGENRE=Speech
TTITLE0=Relaxation
TTITLE1=Affirmationen
TTITLE2=Sublitees
EXTD=YEAR: 2008
EXTT0=
EXTT1=
EXTT2=
PLAYORDER=
